<svg xmlns="http://www.w3.org/2000/svg" xmlns:xlink="http://www.w3.org/1999/xlink" x="0" y="0" enable-background="new 0 0 100 100" version="1.1" viewBox="0 0 100 100" xml:space="preserve"><g><polygon points="53.214 58.036 59.643 58.036 59.643 51.607 53.214 51.607 46.786 51.607 40.357 51.607 40.357 58.036 46.786 58.036"/><rect width="6.429" height="6.429" x="21.071" y="38.75"/><rect width="6.429" height="6.429" x="27.5" y="45.179"/><path d="M14.643,90.179h70.715c6.221,0,9.643-3.422,9.643-9.643V19.464c0-6.221-3.425-9.643-9.643-9.643H14.643 C8.425,9.821,5,13.243,5,19.464v61.072C5,86.757,8.425,90.179,14.643,90.179z M53.214,19.464h32.144v6.429H53.214V19.464z M40.357,19.464h6.429v6.429h-6.429V19.464z M27.5,19.464h6.429v6.429H27.5V19.464z M14.643,19.464h6.429v6.429h-6.429V19.464z M14.643,35.536c0-1.599,1.617-3.215,3.215-3.215h64.285c1.598,0,3.215,1.616,3.215,3.215v41.785c0,1.598-1.617,3.215-3.215,3.215 H17.857c-1.598,0-3.215-1.617-3.215-3.215V35.536z"/><rect width="6.429" height="6.429" x="21.071" y="51.607"/></g></svg>